<svg id="Laag_1" data-name="Laag 1" xmlns="http://www.w3.org/2000/svg" xmlns:xlink="http://www.w3.org/1999/xlink" viewBox="0 0 560.96 229.3"><defs><style>.cls-1{fill:none;}.cls-2{clip-path:url(#clip-path);}.cls-3{fill:#0f468b;}</style><clipPath id="clip-path" transform="translate(0 0)"><rect class="cls-1" width="560.96" height="229.3"/></clipPath></defs><title>H16_LOGO_BLAUW</title><g class="cls-2"><path class="cls-3" d="M498.22,82.8c-30.89,0-49.36,16.56-55.41,44.27,0-63.43,2.38-122.93,51.43-122.93,17.14,0,33.22,6.08,44.84,17.94l1.71-3C529,7.39,511.4,0,487.23,0c-64.65,0-94.11,53.18-94.11,125.8q0,41.08,17.2,66.88c14.33,22.29,37.9,36.62,68.16,36.62,47.45,0,82.48-33.76,82.48-80.89,0-39.17-23.25-65.61-62.74-65.61M479.11,226.12c-22.29,0-36-25.16-36-66.88,0-41.41,13.38-64.65,36-64.65,21.66,0,34.72,22.61,34.72,64.33,0,42.35-13.38,67.2-34.72,67.2" transform="translate(0 0)"/><path class="cls-3" d="M83.92,133.06c-16.86-2.55-37-14.79-48.48-37.77l.48,128H20.22v3.67H99.66v-3.67H84Z" transform="translate(0 0)"/><path class="cls-3" d="M167.27,4.45h15.78V122.63a171.28,171.28,0,0,1-37,4c-12.42,0-23.81-1.1-33.29-3.85C75.75,112,84,57.78,84,34.6,84,.16,62.17.36,47.38.39L0,.52V4.45H17c11.77,0,18.27,5.28,18.6,17.05l.07,30.32c.28,8.74,1.34,26,16,43,13.88,16,40.83,35.77,94.31,35.77a180.7,180.7,0,0,0,37-3.72v96.41H167v3.93h79.44v-3.93h-15V4.45h15.25V.52H167.27Z" transform="translate(0 0)"/><path class="cls-3" d="M349.76.55c-.23.24-1.75,0-1.75,0C316.67,34,289.41,59,263.82,78.83l2.4,3.67C277.38,74,288.87,64.35,301,53.3v170h-15.4v3.85h79.49v-3.85H349.46Z" transform="translate(0 0)"/></g></svg>